<svg width="197" height="48" viewBox="0 0 197 48" fill="none" xmlns="http://www.w3.org/2000/svg">
<path fill-rule="evenodd" clip-rule="evenodd" d="M20 44C31.0457 44 40 35.0457 40 24C40 12.9543 31.0457 4 20 4C8.95428 4 0 12.9543 0 24C0 35.0457 8.95428 44 20 44ZM26.2393 13.3168C26.543 12.2381 25.4961 11.6001 24.54 12.2813L11.1931 21.7896C10.1562 22.5283 10.3193 24 11.4381 24H14.9527V23.9728H21.8025L16.2212 25.9421L13.7607 34.6832C13.457 35.762 14.5038 36.3999 15.46 35.7187L28.8069 26.2105C29.8438 25.4718 29.6806 24 28.5619 24H23.2321L26.2393 13.3168Z" fill="#1D4ED8"/>
<path d="M50.58 34V14.2H65.43V17.53H54.72V22.45H63.15V25.63H54.72V30.67H65.85V34H50.58ZM72.4744 19L76.4344 25.57L77.5444 25.54L83.5444 34H78.7744L74.6644 27.28L73.4644 27.16L67.6744 19H72.4744ZM83.4544 19L77.6644 27.07L76.4344 26.98L72.0544 34H67.4044L73.6144 25.48L74.7844 25.63L78.8044 19H83.4544ZM91.5345 14.41V29.11C91.5345 29.83 91.7145 30.36 92.0745 30.7C92.4545 31.02 92.9645 31.18 93.6045 31.18C94.1045 31.18 94.5445 31.11 94.9245 30.97C95.3045 30.81 95.6445 30.6 95.9445 30.34L96.6045 33.07C96.1245 33.45 95.5245 33.75 94.8045 33.97C94.0845 34.19 93.3245 34.3 92.5245 34.3C91.5245 34.3 90.6345 34.15 89.8545 33.85C89.0945 33.55 88.4945 33.07 88.0545 32.41C87.6345 31.75 87.4245 30.87 87.4245 29.77V15.55L91.5345 14.41ZM96.3345 19V22.06H84.6645V19H96.3345ZM99.1151 34V19H102.685L102.955 21.94C103.355 20.9 103.935 20.1 104.695 19.54C105.475 18.98 106.445 18.7 107.605 18.7C107.945 18.7 108.255 18.73 108.535 18.79C108.815 18.85 109.045 18.93 109.225 19.03L108.745 22.48C108.545 22.4 108.295 22.34 107.995 22.3C107.715 22.26 107.345 22.24 106.885 22.24C106.285 22.24 105.705 22.39 105.145 22.69C104.585 22.97 104.125 23.41 103.765 24.01C103.405 24.59 103.225 25.33 103.225 26.23V34H99.1151ZM120.058 24.43C120.058 23.57 119.808 22.9 119.308 22.42C118.828 21.94 118.188 21.7 117.388 21.7C116.648 21.7 115.998 21.89 115.438 22.27C114.878 22.65 114.468 23.28 114.208 24.16L110.698 23.08C111.038 21.76 111.778 20.7 112.918 19.9C114.078 19.1 115.628 18.7 117.568 18.7C118.888 18.7 120.038 18.91 121.018 19.33C121.998 19.73 122.758 20.34 123.298 21.16C123.858 21.98 124.138 23.01 124.138 24.25V30.34C124.138 31.1 124.498 31.48 125.218 31.48C125.558 31.48 125.878 31.43 126.178 31.33L125.938 33.88C125.418 34.14 124.768 34.27 123.988 34.27C123.288 34.27 122.658 34.15 122.098 33.91C121.538 33.67 121.098 33.31 120.778 32.83C120.458 32.33 120.298 31.71 120.298 30.97V30.85L121.018 30.73C120.898 31.49 120.568 32.14 120.028 32.68C119.488 33.2 118.828 33.6 118.048 33.88C117.288 34.16 116.498 34.3 115.678 34.3C114.658 34.3 113.778 34.15 113.038 33.85C112.298 33.53 111.728 33.07 111.328 32.47C110.928 31.87 110.728 31.13 110.728 30.25C110.728 29.13 111.088 28.22 111.808 27.52C112.528 26.8 113.558 26.31 114.898 26.05L120.538 24.91L120.508 27.46L116.908 28.18C116.228 28.32 115.708 28.51 115.348 28.75C115.008 28.97 114.838 29.34 114.838 29.86C114.838 30.36 115.018 30.74 115.378 31C115.758 31.26 116.208 31.39 116.728 31.39C117.148 31.39 117.558 31.34 117.958 31.24C118.358 31.14 118.718 30.98 119.038 30.76C119.358 30.54 119.608 30.24 119.788 29.86C119.968 29.48 120.058 29.02 120.058 28.48V24.43ZM146.104 28.54C145.724 29.82 145.124 30.89 144.304 31.75C143.484 32.61 142.514 33.25 141.394 33.67C140.274 34.09 139.044 34.3 137.704 34.3C135.744 34.3 134.044 33.89 132.604 33.07C131.184 32.25 130.084 31.08 129.304 29.56C128.544 28.04 128.164 26.22 128.164 24.1C128.164 21.98 128.544 20.16 129.304 18.64C130.084 17.12 131.184 15.95 132.604 15.13C134.044 14.31 135.724 13.9 137.644 13.9C139.004 13.9 140.234 14.09 141.334 14.47C142.434 14.83 143.364 15.39 144.124 16.15C144.904 16.91 145.474 17.87 145.834 19.03L142.084 20.62C141.744 19.42 141.224 18.57 140.524 18.07C139.824 17.55 138.924 17.29 137.824 17.29C136.744 17.29 135.794 17.55 134.974 18.07C134.174 18.59 133.554 19.36 133.114 20.38C132.674 21.38 132.454 22.62 132.454 24.1C132.454 25.56 132.654 26.8 133.054 27.82C133.474 28.84 134.084 29.61 134.884 30.13C135.684 30.65 136.664 30.91 137.824 30.91C138.904 30.91 139.834 30.62 140.614 30.04C141.414 29.46 141.974 28.58 142.294 27.4L146.104 28.54ZM156.053 18.7C157.573 18.7 158.903 19.01 160.043 19.63C161.203 20.25 162.103 21.14 162.743 22.3C163.403 23.46 163.733 24.86 163.733 26.5C163.733 28.12 163.403 29.52 162.743 30.7C162.103 31.86 161.203 32.75 160.043 33.37C158.903 33.99 157.573 34.3 156.053 34.3C154.553 34.3 153.223 33.99 152.063 33.37C150.903 32.75 149.993 31.86 149.333 30.7C148.693 29.52 148.373 28.12 148.373 26.5C148.373 24.86 148.693 23.46 149.333 22.3C149.993 21.14 150.903 20.25 152.063 19.63C153.223 19.01 154.553 18.7 156.053 18.7ZM156.053 21.76C155.293 21.76 154.643 21.94 154.103 22.3C153.583 22.64 153.183 23.16 152.903 23.86C152.623 24.56 152.483 25.44 152.483 26.5C152.483 27.56 152.623 28.44 152.903 29.14C153.183 29.84 153.583 30.37 154.103 30.73C154.643 31.07 155.293 31.24 156.053 31.24C156.793 31.24 157.423 31.07 157.943 30.73C158.483 30.37 158.893 29.84 159.173 29.14C159.453 28.44 159.593 27.56 159.593 26.5C159.593 25.44 159.453 24.56 159.173 23.86C158.893 23.16 158.483 22.64 157.943 22.3C157.423 21.94 156.793 21.76 156.053 21.76ZM167.172 34V19H170.742L171.012 21.94C171.412 20.9 171.992 20.1 172.752 19.54C173.532 18.98 174.502 18.7 175.662 18.7C176.002 18.7 176.312 18.73 176.592 18.79C176.872 18.85 177.102 18.93 177.282 19.03L176.802 22.48C176.602 22.4 176.352 22.34 176.052 22.3C175.772 22.26 175.402 22.24 174.942 22.24C174.342 22.24 173.762 22.39 173.202 22.69C172.642 22.97 172.182 23.41 171.822 24.01C171.462 24.59 171.282 25.33 171.282 26.23V34H167.172ZM179.828 40.3V19H183.518L183.788 23.77L183.278 23.23C183.458 22.35 183.788 21.57 184.268 20.89C184.768 20.21 185.398 19.68 186.158 19.3C186.918 18.9 187.768 18.7 188.708 18.7C189.928 18.7 191.018 19.01 191.978 19.63C192.938 20.25 193.688 21.14 194.228 22.3C194.788 23.44 195.068 24.83 195.068 26.47C195.068 28.11 194.788 29.52 194.228 30.7C193.668 31.86 192.898 32.75 191.918 33.37C190.958 33.99 189.858 34.3 188.618 34.3C187.298 34.3 186.198 33.93 185.318 33.19C184.458 32.45 183.868 31.52 183.548 30.4L183.938 29.77V40.3H179.828ZM187.418 31.15C188.518 31.15 189.378 30.76 189.998 29.98C190.638 29.18 190.958 28.02 190.958 26.5C190.958 24.98 190.648 23.83 190.028 23.05C189.428 22.25 188.578 21.85 187.478 21.85C186.778 21.85 186.158 22.04 185.618 22.42C185.098 22.78 184.688 23.31 184.388 24.01C184.088 24.69 183.938 25.52 183.938 26.5C183.938 27.46 184.078 28.29 184.358 28.99C184.638 29.69 185.038 30.23 185.558 30.61C186.098 30.97 186.718 31.15 187.418 31.15Z" fill="#111827"/>
</svg>
