<svg width="170" height="48" viewBox="0 0 170 48" fill="none" xmlns="http://www.w3.org/2000/svg">
<path d="M0 41.2222C0 42.7563 1.24365 44 2.77778 44H27.2222C28.7563 44 30 42.7563 30 41.2222V34C30 25.7157 23.2843 19 15 19C6.71573 19 0 25.7157 0 34V41.2222Z" fill="#1570EF"/>
<g style="mix-blend-mode:multiply" opacity="0.5">
<path d="M0 6.77778C0 5.24365 1.24365 4 2.77778 4H27.2222C28.7563 4 30 5.24365 30 6.77778V14C30 22.2843 23.2843 29 15 29C6.71573 29 0 22.2843 0 14V6.77778Z" fill="#53B1FD"/>
</g>
<path d="M40 13.3999H43.864V21.4919H52.992V13.3999H56.856V32.9999H52.992V24.8519H43.864V32.9999H40V13.3999Z" fill="#0C111D"/>
<path d="M65.0484 33.2239C63.8724 33.2239 62.8271 32.9999 61.9124 32.5519C61.0164 32.0852 60.3164 31.4319 59.8124 30.5919C59.3271 29.7519 59.0844 28.7812 59.0844 27.6799V24.4039C59.0844 23.3026 59.3364 22.3319 59.8404 21.4919C60.3444 20.6332 61.0444 19.9706 61.9404 19.5039C62.8551 19.0372 63.9004 18.8039 65.0764 18.8039H67.5964C68.7724 18.8039 69.8084 19.0372 70.7044 19.5039C71.6191 19.9706 72.3284 20.6332 72.8324 21.4919C73.3364 22.3319 73.5884 23.3026 73.5884 24.4039V27.6799C73.5884 28.7812 73.3364 29.7519 72.8324 30.5919C72.3284 31.4319 71.6191 32.0852 70.7044 32.5519C69.8084 32.9999 68.7631 33.2239 67.5684 33.2239H65.0484ZM67.5124 29.9479C68.2031 29.9479 68.7537 29.7146 69.1644 29.2479C69.5751 28.7626 69.7804 28.1372 69.7804 27.3719V24.6559C69.7804 23.8906 69.5751 23.2746 69.1644 22.8079C68.7537 22.3226 68.2124 22.0799 67.5404 22.0799H65.1324C64.4604 22.0799 63.9191 22.3226 63.5084 22.8079C63.0977 23.2746 62.8924 23.8906 62.8924 24.6559V27.3719C62.8924 28.1372 63.0977 28.7626 63.5084 29.2479C63.9191 29.7146 64.4511 29.9479 65.1044 29.9479H67.5124Z" fill="#0C111D"/>
<path d="M80.4414 33.2239C78.9667 33.2239 77.7814 32.7292 76.8854 31.7399C75.9894 30.7319 75.5414 29.4159 75.5414 27.7919V19.0279H79.3494V27.8479C79.3494 28.4639 79.4987 28.9679 79.7974 29.3599C80.1147 29.7332 80.5254 29.9199 81.0294 29.9199H82.6534C83.2694 29.9199 83.8294 29.6679 84.3334 29.1639C84.8374 28.6412 85.1921 27.9599 85.3974 27.1199V19.0279H89.2054V32.9999H85.6774V31.2079C85.2481 31.8052 84.7161 32.2906 84.0814 32.6639C83.4654 33.0372 82.8681 33.2239 82.2894 33.2239H80.4414Z" fill="#0C111D"/>
<path d="M91.8838 19.0279H95.4118V20.8199C95.7664 20.2786 96.2705 19.8399 96.9238 19.5039C97.5958 19.1492 98.2958 18.9719 99.0238 18.9719H100.928V22.2759H99.0238C98.0344 22.2759 97.2318 22.5746 96.6158 23.1719C95.9998 23.7692 95.6918 24.5346 95.6918 25.4679V32.9999H91.8838V19.0279Z" fill="#0C111D"/>
<path d="M107.037 38.6839C105.544 38.6839 104.302 38.2546 103.313 37.3959C102.324 36.5559 101.773 35.4452 101.661 34.0639H105.413C105.45 34.4746 105.618 34.8012 105.917 35.0439C106.216 35.3052 106.589 35.4359 107.037 35.4359H109.557C110.136 35.4359 110.602 35.1932 110.957 34.7079C111.33 34.2412 111.517 33.6252 111.517 32.8599V31.5439C111.144 31.9546 110.686 32.2812 110.145 32.5239C109.622 32.7666 109.118 32.8879 108.633 32.8879H106.701C105.002 32.8879 103.63 32.3839 102.585 31.3759C101.558 30.3679 101.045 29.0426 101.045 27.3999V24.5439C101.045 23.4052 101.288 22.4066 101.773 21.5479C102.258 20.6706 102.94 19.9986 103.817 19.5319C104.694 19.0466 105.702 18.8039 106.841 18.8039H108.465C109.1 18.8039 109.716 18.9532 110.313 19.2519C110.929 19.5506 111.424 19.9426 111.797 20.4279V19.0279H115.325V32.8599C115.325 34.0172 115.082 35.0346 114.597 35.9119C114.13 36.7892 113.458 37.4706 112.581 37.9559C111.704 38.4412 110.696 38.6839 109.557 38.6839H107.037ZM108.885 29.6679C109.594 29.6679 110.192 29.3786 110.677 28.7999C111.162 28.2026 111.442 27.4279 111.517 26.4759V24.5439C111.442 23.7972 111.19 23.1999 110.761 22.7519C110.332 22.3039 109.79 22.0799 109.137 22.0799H107.177C106.486 22.0799 105.926 22.3319 105.497 22.8359C105.068 23.3399 104.853 24.0026 104.853 24.8239V27.1199C104.853 27.8852 105.049 28.5012 105.441 28.9679C105.833 29.4346 106.337 29.6679 106.953 29.6679H108.885Z" fill="#0C111D"/>
<path d="M122.841 32.9999C121.18 32.9999 119.957 32.6546 119.174 31.9639C118.408 31.2546 118.025 30.1626 118.025 28.6879V13.3999H121.833V28.4639C121.833 28.9119 121.936 29.2386 122.141 29.4439C122.347 29.6492 122.674 29.7519 123.121 29.7519H124.633V32.9999H122.841Z" fill="#0C111D"/>
<path d="M130.175 33.2239C128.719 33.2239 127.543 32.8599 126.647 32.1319C125.751 31.4039 125.303 30.4426 125.303 29.2479V28.2119C125.303 27.0359 125.769 26.0932 126.703 25.3839C127.636 24.6559 128.868 24.2919 130.399 24.2919H132.107C132.592 24.2919 133.115 24.3572 133.675 24.4879C134.235 24.6186 134.748 24.7959 135.215 25.0199V23.5639C135.215 23.0972 135.056 22.7239 134.739 22.4439C134.44 22.1452 134.039 21.9959 133.535 21.9959H131.127C130.604 21.9959 130.184 22.1172 129.867 22.3599C129.549 22.6026 129.391 22.9292 129.391 23.3399H125.695C125.695 21.9772 126.189 20.8852 127.179 20.0639C128.187 19.2239 129.503 18.8039 131.127 18.8039H133.535C135.177 18.8039 136.503 19.2426 137.511 20.1199C138.519 20.9786 139.023 22.1266 139.023 23.5639V32.9999H135.495V31.3199C135.047 31.8986 134.496 32.3652 133.843 32.7199C133.189 33.0559 132.545 33.2239 131.911 33.2239H130.175ZM132.191 30.3119C132.881 30.3119 133.497 30.1346 134.039 29.7799C134.58 29.4252 134.972 28.9492 135.215 28.3519V27.8759C134.916 27.6519 134.496 27.4746 133.955 27.3439C133.432 27.2132 132.872 27.1479 132.275 27.1479H130.511C130.063 27.1479 129.699 27.2599 129.419 27.4839C129.139 27.7079 128.999 28.0066 128.999 28.3799V29.1079C128.999 29.4626 129.148 29.7519 129.447 29.9759C129.764 30.1999 130.175 30.3119 130.679 30.3119H132.191Z" fill="#0C111D"/>
<path d="M146.498 33.2239C144.8 33.2239 143.437 32.7759 142.41 31.8799C141.384 30.9839 140.87 29.8079 140.87 28.3519H144.622C144.622 28.8559 144.79 29.2666 145.126 29.5839C145.481 29.8826 145.938 30.0319 146.498 30.0319H149.018C150.138 30.0319 150.698 29.7239 150.698 29.1079V28.6319C150.698 28.4452 150.605 28.2772 150.418 28.1279C150.232 27.9599 149.98 27.8479 149.662 27.7919L144.818 26.9519C143.68 26.7652 142.774 26.3639 142.102 25.7479C141.449 25.1132 141.122 24.3759 141.122 23.5359V22.6119C141.122 21.4172 141.608 20.4839 142.578 19.8119C143.568 19.1399 144.94 18.8039 146.694 18.8039H148.878C150.446 18.8039 151.706 19.2239 152.658 20.0639C153.629 20.8852 154.114 21.9772 154.114 23.3399H150.362C150.362 22.9292 150.222 22.6026 149.942 22.3599C149.681 22.1172 149.326 21.9959 148.878 21.9959H146.75C145.537 21.9959 144.93 22.2759 144.93 22.8359V23.2839C144.93 23.4892 145.005 23.6666 145.154 23.8159C145.322 23.9466 145.556 24.0399 145.854 24.0959L150.95 25.0199C152.014 25.2066 152.873 25.6079 153.526 26.2239C154.18 26.8212 154.506 27.5026 154.506 28.2679V29.2759C154.506 30.4892 154.002 31.4506 152.994 32.1599C152.005 32.8692 150.68 33.2239 149.018 33.2239H146.498Z" fill="#0C111D"/>
<path d="M161.305 33.2239C159.607 33.2239 158.244 32.7759 157.217 31.8799C156.191 30.9839 155.677 29.8079 155.677 28.3519H159.429C159.429 28.8559 159.597 29.2666 159.933 29.5839C160.288 29.8826 160.745 30.0319 161.305 30.0319H163.825C164.945 30.0319 165.505 29.7239 165.505 29.1079V28.6319C165.505 28.4452 165.412 28.2772 165.225 28.1279C165.039 27.9599 164.787 27.8479 164.469 27.7919L159.625 26.9519C158.487 26.7652 157.581 26.3639 156.909 25.7479C156.256 25.1132 155.929 24.3759 155.929 23.5359V22.6119C155.929 21.4172 156.415 20.4839 157.385 19.8119C158.375 19.1399 159.747 18.8039 161.501 18.8039H163.685C165.253 18.8039 166.513 19.2239 167.465 20.0639C168.436 20.8852 168.921 21.9772 168.921 23.3399H165.169C165.169 22.9292 165.029 22.6026 164.749 22.3599C164.488 22.1172 164.133 21.9959 163.685 21.9959H161.557C160.344 21.9959 159.737 22.2759 159.737 22.8359V23.2839C159.737 23.4892 159.812 23.6666 159.961 23.8159C160.129 23.9466 160.363 24.0399 160.661 24.0959L165.757 25.0199C166.821 25.2066 167.68 25.6079 168.333 26.2239C168.987 26.8212 169.313 27.5026 169.313 28.2679V29.2759C169.313 30.4892 168.809 31.4506 167.801 32.1599C166.812 32.8692 165.487 33.2239 163.825 33.2239H161.305Z" fill="#0C111D"/>
</svg>
