<svg width="204" height="48" viewBox="0 0 204 48" fill="none" xmlns="http://www.w3.org/2000/svg">
<path d="M35.8177 36.8043C35.3172 37.8411 34.2674 38.5 33.1161 38.5H16.8085C14.5892 38.5 13.1382 36.1739 14.1141 34.1807L25.3765 11.1807C25.8802 10.1521 26.9256 9.5 28.0709 9.5L44.2195 9.5C46.4315 9.5 47.8829 11.8122 46.9212 13.8042L35.8177 36.8043Z" fill="#444CE7"/>
<path opacity="0.5" d="M6.8703 26.7399C7.92144 29.0424 11.1759 29.0886 12.292 26.8169L18.6757 13.8228C19.6551 11.8294 18.2041 9.5 15.9831 9.5L3.6673 9.5C1.48331 9.5 0.0312503 11.7591 0.938245 13.7459L6.8703 26.7399Z" fill="#444CE7"/>
<path d="M76.0653 16.8445C76.5133 17.1992 77.2226 17.3765 78.1933 17.3765C79.1453 17.3765 79.8453 17.1992 80.2933 16.8445C80.7413 16.4712 80.9653 15.8925 80.9653 15.1085C80.9653 14.3058 80.7413 13.7272 80.2933 13.3725C79.8453 12.9992 79.1453 12.8125 78.1933 12.8125C77.2226 12.8125 76.5133 12.9992 76.0653 13.3725C75.6359 13.7272 75.4213 14.3058 75.4213 15.1085C75.4213 15.8925 75.6359 16.4712 76.0653 16.8445Z" fill="#0C111D"/>
<path d="M68.236 33.0005L74.788 14.5205H69.888L66.444 25.7485L65.464 29.3325L64.456 25.6925L61.068 14.5205H56L62.58 33.0005H68.236Z" fill="#0C111D"/>
<path d="M89.0017 33.2805C87.6017 33.2805 86.2951 33.0565 85.0817 32.6085C83.8871 32.1418 82.8977 31.4792 82.1137 30.6205L84.3537 27.9885C84.8204 28.5858 85.4364 29.0898 86.2017 29.5005C86.9857 29.8925 87.8537 30.0885 88.8057 30.0885C89.3844 30.0885 89.8604 30.0045 90.2337 29.8365C90.6071 29.6685 90.7937 29.4072 90.7937 29.0525C90.7937 28.7912 90.7004 28.5858 90.5137 28.4365C90.327 28.2685 89.9537 28.1285 89.3937 28.0165L87.4337 27.6245C85.6791 27.2698 84.4284 26.7472 83.6817 26.0565C82.9537 25.3472 82.5897 24.4232 82.5897 23.2845C82.5897 22.5192 82.8231 21.7912 83.2897 21.1005C83.7564 20.3912 84.4751 19.8218 85.4457 19.3925C86.4164 18.9445 87.6577 18.7205 89.1697 18.7205C90.5884 18.7205 91.8391 18.9258 92.9217 19.3365C94.0044 19.7472 94.8631 20.3445 95.4977 21.1285L93.2297 23.7045C92.7817 23.1445 92.2031 22.7058 91.4937 22.3885C90.7844 22.0712 90.0751 21.9125 89.3657 21.9125C88.9177 21.9125 88.5351 21.9592 88.2177 22.0525C87.9191 22.1272 87.6951 22.2392 87.5457 22.3885C87.3964 22.5378 87.3217 22.7245 87.3217 22.9485C87.3217 23.1912 87.4337 23.4058 87.6577 23.5925C87.9004 23.7605 88.3391 23.9098 88.9737 24.0405L91.5217 24.5445C92.9591 24.8058 93.9951 25.2818 94.6297 25.9725C95.2644 26.6632 95.5817 27.4938 95.5817 28.4645C95.5817 29.3792 95.3391 30.2005 94.8537 30.9285C94.3684 31.6565 93.6404 32.2352 92.6697 32.6645C91.6991 33.0752 90.4764 33.2805 89.0017 33.2805Z" fill="#0C111D"/>
<path d="M97.4634 16.8445C97.9114 17.1992 98.6207 17.3765 99.5914 17.3765C100.543 17.3765 101.243 17.1992 101.691 16.8445C102.139 16.4712 102.363 15.8925 102.363 15.1085C102.363 14.3058 102.139 13.7272 101.691 13.3725C101.243 12.9992 100.543 12.8125 99.5914 12.8125C98.6207 12.8125 97.9114 12.9992 97.4634 13.3725C97.0341 13.7272 96.8194 14.3058 96.8194 15.1085C96.8194 15.8925 97.0341 16.4712 97.4634 16.8445Z" fill="#0C111D"/>
<path fill-rule="evenodd" clip-rule="evenodd" d="M111.184 18.7205C112.659 18.7205 113.947 19.0098 115.048 19.5885C116.168 20.1485 117.036 20.9792 117.652 22.0805C118.287 23.1632 118.604 24.4698 118.604 26.0005C118.604 27.5312 118.287 28.8472 117.652 29.9485C117.036 31.0312 116.168 31.8618 115.048 32.4405C113.947 33.0005 112.659 33.2805 111.184 33.2805C109.747 33.2805 108.468 33.0005 107.348 32.4405C106.228 31.8618 105.351 31.0312 104.716 29.9485C104.1 28.8472 103.792 27.5312 103.792 26.0005C103.792 24.4698 104.1 23.1632 104.716 22.0805C105.351 20.9792 106.228 20.1485 107.348 19.5885C108.468 19.0098 109.747 18.7205 111.184 18.7205ZM111.184 22.1085C110.643 22.1085 110.176 22.2392 109.784 22.5005C109.392 22.7618 109.093 23.1818 108.888 23.7605C108.683 24.3392 108.58 25.0858 108.58 26.0005C108.58 26.9152 108.683 27.6618 108.888 28.2405C109.093 28.8005 109.392 29.2205 109.784 29.5005C110.176 29.7618 110.643 29.8925 111.184 29.8925C111.744 29.8925 112.22 29.7618 112.612 29.5005C113.004 29.2205 113.303 28.8005 113.508 28.2405C113.713 27.6618 113.816 26.9152 113.816 26.0005C113.816 25.0858 113.713 24.3392 113.508 23.7605C113.303 23.1818 113.004 22.7618 112.612 22.5005C112.22 22.2392 111.744 22.1085 111.184 22.1085Z" fill="#0C111D"/>
<path d="M124.844 21.7952L124.698 19.0005H120.442V33.0005H125.202V25.5805C125.202 24.7965 125.314 24.1712 125.538 23.7045C125.762 23.2378 126.07 22.9018 126.462 22.6965C126.854 22.4725 127.274 22.3605 127.722 22.3605C128.3 22.3605 128.776 22.5472 129.15 22.9205C129.523 23.2938 129.71 23.9658 129.71 24.9365V33.0005H134.47V23.6765C134.47 22.5752 134.264 21.6605 133.854 20.9325C133.443 20.2045 132.874 19.6538 132.146 19.2805C131.436 18.9072 130.596 18.7205 129.626 18.7205C128.73 18.7205 127.918 18.8978 127.19 19.2525C126.48 19.5885 125.883 20.0925 125.398 20.7645C125.184 21.0727 124.999 21.4163 124.844 21.7952Z" fill="#0C111D"/>
<path d="M152.843 29.3325L155.223 19.0005H160.207L155.979 33.0005H150.267L147.719 24.4045L145.255 33.0005H139.571L135.315 19.0005H140.327L142.679 29.3325L145.423 19.0005H150.127L152.843 29.3325Z" fill="#0C111D"/>
<path fill-rule="evenodd" clip-rule="evenodd" d="M171.426 19.5885C170.325 19.0098 169.037 18.7205 167.562 18.7205C166.125 18.7205 164.846 19.0098 163.726 19.5885C162.606 20.1485 161.729 20.9792 161.094 22.0805C160.478 23.1632 160.17 24.4698 160.17 26.0005C160.17 27.5312 160.478 28.8472 161.094 29.9485C161.729 31.0312 162.606 31.8618 163.726 32.4405C164.846 33.0005 166.125 33.2805 167.562 33.2805C169.037 33.2805 170.325 33.0005 171.426 32.4405C172.546 31.8618 173.414 31.0312 174.03 29.9485C174.665 28.8472 174.982 27.5312 174.982 26.0005C174.982 24.4698 174.665 23.1632 174.03 22.0805C173.414 20.9792 172.546 20.1485 171.426 19.5885ZM166.162 22.5005C166.554 22.2392 167.021 22.1085 167.562 22.1085C168.122 22.1085 168.598 22.2392 168.99 22.5005C169.382 22.7618 169.681 23.1818 169.886 23.7605C170.092 24.3392 170.194 25.0858 170.194 26.0005C170.194 26.9152 170.092 27.6618 169.886 28.2405C169.681 28.8005 169.382 29.2205 168.99 29.5005C168.598 29.7618 168.122 29.8925 167.562 29.8925C167.021 29.8925 166.554 29.7618 166.162 29.5005C165.77 29.2205 165.472 28.8005 165.266 28.2405C165.061 27.6618 164.958 26.9152 164.958 26.0005C164.958 25.0858 165.061 24.3392 165.266 23.7605C165.472 23.1818 165.77 22.7618 166.162 22.5005Z" fill="#0C111D"/>
<path d="M182 24.1525C181.72 24.6192 181.58 25.2165 181.58 25.9445V33.0005H176.82V19.0005H181.02L181.216 22.0245C181.571 20.9792 182.093 20.1672 182.784 19.5885C183.493 19.0098 184.389 18.7205 185.472 18.7205C185.827 18.7205 186.125 18.7485 186.368 18.8045C186.629 18.8605 186.835 18.9352 186.984 19.0285L186.508 22.9485C186.321 22.8738 186.079 22.8178 185.78 22.7805C185.5 22.7245 185.155 22.6965 184.744 22.6965C184.184 22.6965 183.661 22.8178 183.176 23.0605C182.691 23.3032 182.299 23.6672 182 24.1525Z" fill="#0C111D"/>
<path d="M198.227 24.5005L203.383 19.0005H198.091L192.771 24.883V13.0645H188.011V33.0005H192.771V29.7727L195.024 27.252L198.427 33.0005H203.691L198.227 24.5005Z" fill="#0C111D"/>
<path d="M80.5733 33.0005V19.0005H75.8133V33.0005H80.5733Z" fill="#0C111D"/>
<path d="M101.971 33.0005V19.0005H97.2114V33.0005H101.971Z" fill="#0C111D"/>
</svg>
