<svg width="235" height="48" viewBox="0 0 235 48" fill="none" xmlns="http://www.w3.org/2000/svg">
<path d="M32.3008 36H32.1993C32.1732 36.0402 32.147 36.0804 32.1206 36.1204C29.3602 37.9405 26.0538 38.9998 22.5 38.9998C12.835 38.9998 5 31.1648 5 21.4998C5 17.946 6.05931 14.6396 7.87939 11.8792C7.91948 11.8528 7.95968 11.8265 8 11.8004V11.6987C7.95944 11.7586 7.91923 11.8188 7.87939 11.8792C3.13249 15.0091 0 20.3886 0 26.4998C0 36.1648 7.83502 43.9998 17.5 43.9998C23.6112 43.9998 28.9907 40.8673 32.1206 36.1204C32.1809 36.0806 32.241 36.0405 32.3008 36Z" fill="#7839EE"/>
<g opacity="0.5">
<path d="M40.0003 21.5C40.0003 27.6112 36.8678 32.9907 32.1209 36.1206C33.941 33.3602 35.0003 30.0538 35.0003 26.5C35.0003 16.835 27.1653 9 17.5003 9C13.9465 9 10.6401 10.0593 7.8797 11.8794C11.0096 7.13249 16.3891 4 22.5003 4C32.1653 4 40.0003 11.835 40.0003 21.5Z" fill="#7839EE"/>
<path d="M32.0003 36.1994C32.0406 36.1733 32.0808 36.147 32.1209 36.1206C32.0811 36.181 32.0409 36.2412 32.0003 36.3011V36.1994Z" fill="#7839EE"/>
<path d="M7.80088 12C7.82699 11.9597 7.85326 11.9195 7.8797 11.8794C7.81927 11.9192 7.75911 11.9594 7.69922 12H7.80088Z" fill="#7839EE"/>
</g>
<path d="M48 32.9999V13.3169H52.428V29.1119H61.662V32.9999H48Z" fill="#0C111D"/>
<path d="M68.5489 33.2699C66.9469 33.2699 65.7499 32.7479 64.9579 31.7039C64.1659 30.6419 63.7699 29.2469 63.7699 27.5189V18.5009H67.9009V26.9249C67.9009 28.0769 68.1259 28.8689 68.5759 29.3009C69.0439 29.7149 69.6649 29.9219 70.4389 29.9219C71.3569 29.9219 72.0499 29.6159 72.5179 29.0039C72.9859 28.3919 73.2199 27.5909 73.2199 26.6009V18.5009H77.3509V32.9999H73.4899L73.1929 30.6239H72.9769C72.6529 31.4159 72.0949 32.0549 71.3029 32.5409C70.5289 33.0269 69.6109 33.2699 68.5489 33.2699Z" fill="#0C111D"/>
<path d="M80.4508 32.9999V18.5009H84.3388L84.6088 20.7959H84.8518C85.1578 20.0039 85.6888 19.3829 86.4448 18.9329C87.2008 18.4829 88.0738 18.2579 89.0638 18.2579C90.2158 18.2579 91.1788 18.5279 91.9528 19.0679C92.7268 19.6079 93.2488 20.3369 93.5188 21.2549H93.7078C94.0138 20.3009 94.5718 19.5629 95.3818 19.0409C96.1918 18.5189 97.1458 18.2579 98.2438 18.2579C99.7558 18.2579 100.953 18.7079 101.835 19.6079C102.735 20.4899 103.185 21.8939 103.185 23.8199V32.9999H99.0268V24.5759C99.0268 23.4959 98.8108 22.7399 98.3788 22.3079C97.9468 21.8579 97.3528 21.6329 96.5968 21.6329C95.7148 21.6329 95.0398 21.9299 94.5718 22.5239C94.1218 23.0999 93.8968 23.8829 93.8968 24.8729V32.9999H89.7388V24.5759C89.7388 23.4959 89.5228 22.7399 89.0908 22.3079C88.6768 21.8579 88.0738 21.6329 87.2818 21.6329C86.3998 21.6329 85.7338 21.9299 85.2838 22.5239C84.8338 23.0999 84.6088 23.8829 84.6088 24.8729V32.9999H80.4508Z" fill="#0C111D"/>
<path d="M106.278 32.9999V18.5009H110.436V32.9999H106.278ZM106.278 16.6649V13.3169H110.436V16.6649H106.278Z" fill="#0C111D"/>
<path d="M113.675 32.9999V18.5009H117.536L117.833 20.8769H118.076C118.382 20.0849 118.913 19.4459 119.669 18.9599C120.425 18.4739 121.325 18.2309 122.369 18.2309C123.917 18.2309 125.141 18.7079 126.041 19.6619C126.941 20.5979 127.391 22.0829 127.391 24.1169V32.9999H123.26V24.6569C123.26 23.4869 123.026 22.6859 122.558 22.2539C122.09 21.8219 121.46 21.6059 120.668 21.6059C119.732 21.6059 119.021 21.9119 118.535 22.5239C118.067 23.1359 117.833 23.9459 117.833 24.9539V32.9999H113.675Z" fill="#0C111D"/>
<path d="M136.721 33.2699C135.119 33.2699 133.778 32.9639 132.698 32.3519C131.636 31.7219 130.844 30.8489 130.322 29.7329C129.8 28.5989 129.539 27.2849 129.539 25.7909V25.5479C129.539 23.9819 129.827 22.6589 130.403 21.5789C130.979 20.4809 131.78 19.6529 132.806 19.0949C133.85 18.5189 135.047 18.2309 136.397 18.2309C137.873 18.2309 139.124 18.5099 140.15 19.0679C141.194 19.6259 141.986 20.4089 142.526 21.4169C143.066 22.4249 143.336 23.6039 143.336 24.9539V26.7899H133.751V27.5459C133.751 28.3199 134.012 28.9409 134.534 29.4089C135.074 29.8769 135.758 30.1109 136.586 30.1109C137.324 30.1109 137.927 29.9489 138.395 29.6249C138.881 29.3009 139.169 28.8689 139.259 28.3289H143.174C143.12 29.3189 142.814 30.1829 142.256 30.9209C141.698 31.6589 140.942 32.2349 139.988 32.6489C139.034 33.0629 137.945 33.2699 136.721 33.2699ZM133.751 24.0899V24.2249H139.259V24.0899C139.259 23.1179 139.007 22.4159 138.503 21.9839C137.999 21.5339 137.342 21.3089 136.532 21.3089C135.668 21.3089 134.984 21.5519 134.48 22.0379C133.994 22.5059 133.751 23.1899 133.751 24.0899Z" fill="#0C111D"/>
<path d="M150.925 33.2699C148.855 33.2699 147.271 32.8199 146.173 31.9199C145.093 31.0199 144.562 29.8499 144.58 28.4099H148.549C148.585 29.1299 148.828 29.6429 149.278 29.9489C149.746 30.2549 150.34 30.4079 151.06 30.4079C151.78 30.4079 152.293 30.2729 152.599 30.0029C152.923 29.7149 153.085 29.3729 153.085 28.9769C153.085 28.3469 152.86 27.9329 152.41 27.7349C151.96 27.5189 151.258 27.3389 150.304 27.1949C149.44 27.0689 148.594 26.8709 147.766 26.6009C146.938 26.3309 146.254 25.9079 145.714 25.3319C145.192 24.7379 144.931 23.9279 144.931 22.9019C144.931 21.8939 145.183 21.0479 145.687 20.3639C146.209 19.6619 146.92 19.1309 147.82 18.7709C148.72 18.4109 149.755 18.2309 150.925 18.2309C152.707 18.2309 154.147 18.6269 155.245 19.4189C156.361 20.2109 156.937 21.3269 156.973 22.7669L153.058 22.7399C153.058 22.1819 152.86 21.7589 152.464 21.4709C152.086 21.1649 151.573 21.0119 150.925 21.0119C150.295 21.0119 149.818 21.1379 149.494 21.3899C149.17 21.6419 149.008 21.9749 149.008 22.3889C149.008 22.9649 149.269 23.3429 149.791 23.5229C150.331 23.7029 151.006 23.8559 151.816 23.9819C152.5 24.0719 153.166 24.1979 153.814 24.3599C154.462 24.5039 155.047 24.7379 155.569 25.0619C156.109 25.3859 156.532 25.8359 156.838 26.4119C157.144 26.9699 157.297 27.7079 157.297 28.6259C157.297 30.0479 156.739 31.1819 155.623 32.0279C154.525 32.8559 152.959 33.2699 150.925 33.2699Z" fill="#0C111D"/>
<path d="M165.8 33.2699C163.442 33.2699 161.687 32.5949 160.535 31.2449C159.401 29.8949 158.834 28.0949 158.834 25.8449V25.7639C158.834 23.2259 159.464 21.3359 160.724 20.0939C162.002 18.8519 163.703 18.2309 165.827 18.2309C167.861 18.2309 169.463 18.7439 170.633 19.7699C171.803 20.7959 172.424 22.1639 172.496 23.8739H168.446C168.374 23.1179 168.104 22.5509 167.636 22.1729C167.168 21.7949 166.565 21.6059 165.827 21.6059C164.945 21.6059 164.252 21.8669 163.748 22.3889C163.262 22.9109 163.019 23.6129 163.019 24.4949V27.0869C163.019 27.9689 163.262 28.6619 163.748 29.1659C164.234 29.6699 164.918 29.9219 165.8 29.9219C166.628 29.9219 167.258 29.7059 167.69 29.2739C168.14 28.8419 168.392 28.2929 168.446 27.6269H172.523C172.505 28.7609 172.208 29.7509 171.632 30.5969C171.074 31.4429 170.291 32.0999 169.283 32.5679C168.275 33.0359 167.114 33.2699 165.8 33.2699Z" fill="#0C111D"/>
<path d="M180.954 33.2699C179.352 33.2699 178.011 32.9639 176.931 32.3519C175.869 31.7219 175.077 30.8489 174.555 29.7329C174.033 28.5989 173.772 27.2849 173.772 25.7909V25.5479C173.772 23.9819 174.06 22.6589 174.636 21.5789C175.212 20.4809 176.013 19.6529 177.039 19.0949C178.083 18.5189 179.28 18.2309 180.63 18.2309C182.106 18.2309 183.357 18.5099 184.383 19.0679C185.427 19.6259 186.219 20.4089 186.759 21.4169C187.299 22.4249 187.569 23.6039 187.569 24.9539V26.7899H177.984V27.5459C177.984 28.3199 178.245 28.9409 178.767 29.4089C179.307 29.8769 179.991 30.1109 180.819 30.1109C181.557 30.1109 182.16 29.9489 182.628 29.6249C183.114 29.3009 183.402 28.8689 183.492 28.3289H187.407C187.353 29.3189 187.047 30.1829 186.489 30.9209C185.931 31.6589 185.175 32.2349 184.221 32.6489C183.267 33.0629 182.178 33.2699 180.954 33.2699ZM177.984 24.0899V24.2249H183.492V24.0899C183.492 23.1179 183.24 22.4159 182.736 21.9839C182.232 21.5339 181.575 21.3089 180.765 21.3089C179.901 21.3089 179.217 21.5519 178.713 22.0379C178.227 22.5059 177.984 23.1899 177.984 24.0899Z" fill="#0C111D"/>
<path d="M189.839 32.9999V18.5009H193.7L193.997 20.8769H194.24C194.546 20.0849 195.077 19.4459 195.833 18.9599C196.589 18.4739 197.489 18.2309 198.533 18.2309C200.081 18.2309 201.305 18.7079 202.205 19.6619C203.105 20.5979 203.555 22.0829 203.555 24.1169V32.9999H199.424V24.6569C199.424 23.4869 199.19 22.6859 198.722 22.2539C198.254 21.8219 197.624 21.6059 196.832 21.6059C195.896 21.6059 195.185 21.9119 194.699 22.5239C194.231 23.1359 193.997 23.9459 193.997 24.9539V32.9999H189.839Z" fill="#0C111D"/>
<path d="M212.669 33.2699C210.311 33.2699 208.556 32.5949 207.404 31.2449C206.27 29.8949 205.703 28.0949 205.703 25.8449V25.7639C205.703 23.2259 206.333 21.3359 207.593 20.0939C208.871 18.8519 210.572 18.2309 212.696 18.2309C214.73 18.2309 216.332 18.7439 217.502 19.7699C218.672 20.7959 219.293 22.1639 219.365 23.8739H215.315C215.243 23.1179 214.973 22.5509 214.505 22.1729C214.037 21.7949 213.434 21.6059 212.696 21.6059C211.814 21.6059 211.121 21.8669 210.617 22.3889C210.131 22.9109 209.888 23.6129 209.888 24.4949V27.0869C209.888 27.9689 210.131 28.6619 210.617 29.1659C211.103 29.6699 211.787 29.9219 212.669 29.9219C213.497 29.9219 214.127 29.7059 214.559 29.2739C215.009 28.8419 215.261 28.2929 215.315 27.6269H219.392C219.374 28.7609 219.077 29.7509 218.501 30.5969C217.943 31.4429 217.16 32.0999 216.152 32.5679C215.144 33.0359 213.983 33.2699 212.669 33.2699Z" fill="#0C111D"/>
<path d="M227.823 33.2699C226.221 33.2699 224.88 32.9639 223.8 32.3519C222.738 31.7219 221.946 30.8489 221.424 29.7329C220.902 28.5989 220.641 27.2849 220.641 25.7909V25.5479C220.641 23.9819 220.929 22.6589 221.505 21.5789C222.081 20.4809 222.882 19.6529 223.908 19.0949C224.952 18.5189 226.149 18.2309 227.499 18.2309C228.975 18.2309 230.226 18.5099 231.252 19.0679C232.296 19.6259 233.088 20.4089 233.628 21.4169C234.168 22.4249 234.438 23.6039 234.438 24.9539V26.7899H224.853V27.5459C224.853 28.3199 225.114 28.9409 225.636 29.4089C226.176 29.8769 226.86 30.1109 227.688 30.1109C228.426 30.1109 229.029 29.9489 229.497 29.6249C229.983 29.3009 230.271 28.8689 230.361 28.3289H234.276C234.222 29.3189 233.916 30.1829 233.358 30.9209C232.8 31.6589 232.044 32.2349 231.09 32.6489C230.136 33.0629 229.047 33.2699 227.823 33.2699ZM224.853 24.0899V24.2249H230.361V24.0899C230.361 23.1179 230.109 22.4159 229.605 21.9839C229.101 21.5339 228.444 21.3089 227.634 21.3089C226.77 21.3089 226.086 21.5519 225.582 22.0379C225.096 22.5059 224.853 23.1899 224.853 24.0899Z" fill="#0C111D"/>
</svg>
