<svg width="196" height="48" viewBox="0 0 196 48" fill="none" xmlns="http://www.w3.org/2000/svg">
<path fill-rule="evenodd" clip-rule="evenodd" d="M12.7018 5C14.5428 5 16.119 6.31967 16.4426 8.13199L16.9074 10.7347C17.231 12.547 18.8072 13.8667 20.6482 13.8667H23.8C28.6969 13.8667 32.6667 17.8364 32.6667 22.7333C32.6667 25.6666 31.2423 28.2672 29.0476 29.8812C29.9676 30.1938 30.6942 30.6902 31.2275 31.3422C31.7765 32.0613 32.1686 33.0833 32.4039 34.3702C32.4431 34.7108 32.4922 35.042 32.5412 35.3732C32.5902 35.7044 32.6392 36.0356 32.6784 36.3762C32.7192 36.73 32.7493 37.0328 32.7744 37.2845C32.7976 37.5175 32.8164 37.7068 32.8353 37.8524C32.9137 38.9122 33.0314 39.7827 33.1882 40.4262C33.3537 41.331 33.6876 42.2129 34.1609 43H27.4627C27.149 42.3944 26.9529 41.6753 26.7961 40.8804C26.6612 40.1968 26.5553 39.3452 26.4285 38.3256C26.4078 38.1597 26.3867 37.9894 26.3647 37.8145L26.1294 36.0734C25.9333 34.7487 25.698 33.8024 25.4627 33.1968C25.1882 32.6291 24.7569 32.2127 24.1686 31.9856C23.5412 31.7585 22.6 31.6 21.2667 31.6H20.9649C19.1239 31.6 17.5477 30.2803 17.2241 28.468L16.7593 25.8653C16.4357 24.053 14.8595 22.7333 13.0185 22.7333H7.33333V32.8667H1V5H12.7018ZM26.3333 22.7333C26.3333 24.1325 25.1991 25.2667 23.8 25.2667H20.6482C18.8072 25.2667 17.231 23.947 16.9074 22.1347L16.4426 19.532C16.119 17.7197 14.5428 16.4 12.7018 16.4H7.33333V11.3333H13.0185C14.8595 11.3333 16.4357 12.653 16.7593 14.4653L17.224 17.068C17.5477 18.8803 19.1239 20.2 20.9649 20.2H23.8C25.1991 20.2 26.3333 21.3342 26.3333 22.7333Z" fill="#1849A9"/>
<path d="M58.93 32.8116V33.0006H54.286C54.043 31.7316 53.827 30.2736 53.611 28.5186C53.368 26.3316 52.693 25.6836 50.128 25.6836H46.969V33.0006H43V13.2906H50.29C51.397 13.2906 52.207 13.3176 53.179 13.4256C55.96 13.7496 58.363 15.1536 58.363 18.8526C58.363 21.3366 57.04 22.9566 54.907 23.8206C56.5 24.4416 57.418 25.6296 57.634 27.6276C57.85 29.6526 58.039 30.7596 58.363 32.1096L58.93 32.8116ZM46.969 22.3086H50.371C52.693 22.3086 54.313 21.6876 54.313 19.5006C54.313 17.5026 53.233 16.6926 50.506 16.6926H46.969V22.3086Z" fill="#0C111D"/>
<path d="M66.8821 18.3666C71.5531 18.3666 73.5241 21.4176 73.5241 25.6296C73.5241 26.0346 73.4971 26.5746 73.4701 27.0336H63.7231C63.9661 29.4366 65.0461 30.2736 66.8281 30.2736C68.3131 30.2736 69.1501 29.7066 69.5281 28.6536H73.2811C72.7681 31.6506 70.4461 33.3786 66.7471 33.3786C62.1571 33.3786 59.7811 30.8676 59.7811 25.9536C59.7811 21.3096 62.0221 18.3666 66.8821 18.3666ZM63.7501 24.3336H69.6361C69.4201 22.2546 68.3401 21.4446 66.7201 21.4446C65.0191 21.4446 63.9931 22.2006 63.7501 24.3336Z" fill="#0C111D"/>
<path d="M83.3838 18.3666C86.3808 18.3666 88.1088 19.5546 88.4598 22.1736C88.5408 22.9026 88.5678 23.5776 88.5678 24.7386V33.0006H84.7068V24.6846C84.7068 22.7946 84.1938 21.5796 82.0608 21.5796C80.3058 21.5256 79.0638 22.7406 79.0638 25.4406V33.0006H75.2028V18.7446H78.7398L78.9018 21.0666C79.3608 18.9606 81.0348 18.3666 83.3838 18.3666Z" fill="#0C111D"/>
<path d="M96.7878 18.3666C101 18.3666 102.566 20.1756 102.755 22.6866C102.809 23.4156 102.836 24.0906 102.836 24.9006V33.0006H99.3528L99.1368 31.1106C98.4888 33.0276 96.7878 33.3786 94.6818 33.3786C92.0628 33.3786 90.0108 31.8936 90.0108 29.1126C90.0108 25.5486 92.7378 24.2526 98.2458 24.2526H99.0288V23.7396C99.0288 22.3356 98.5698 21.4446 96.6258 21.4446C94.9248 21.4446 94.1688 22.0386 94.0068 23.3616H90.4698C90.5778 20.2836 92.4678 18.3666 96.7878 18.3666ZM93.7638 28.6536C93.7638 29.7066 94.6008 30.3006 95.9238 30.3006C97.4358 30.3006 99.0288 29.4366 99.0288 28.0326V26.8986C95.6268 26.7366 93.7638 27.0876 93.7638 28.6536Z" fill="#0C111D"/>
<path d="M108.979 18.7446V33.0006H105.118V18.7446H108.979ZM104.929 14.2896C104.929 13.1286 105.874 12.1836 107.035 12.1836C108.223 12.1836 109.168 13.1286 109.168 14.2896C109.168 15.4776 108.223 16.3956 107.035 16.3956C105.874 16.3956 104.929 15.4776 104.929 14.2896Z" fill="#0C111D"/>
<path d="M116.722 18.3666C120.772 18.3666 122.5 19.9326 122.689 22.9296H118.963C118.774 21.6066 117.883 21.2826 116.641 21.2826C115.507 21.2826 114.643 21.7146 114.643 22.5246C114.643 23.3886 115.345 23.8746 117.559 24.2256C121.312 24.7926 123.121 26.0886 123.121 28.8966C123.121 31.9206 120.367 33.3786 116.938 33.3786C112.888 33.3786 110.809 31.9476 110.431 28.7076H114.211C114.454 30.0036 115.264 30.4356 117.046 30.4356C118.45 30.4356 119.287 29.9766 119.287 29.2206C119.287 28.2756 118.315 27.7356 116.209 27.4116C112.429 26.7906 110.809 25.6566 110.809 22.7676C110.809 20.1486 113.131 18.3666 116.722 18.3666Z" fill="#0C111D"/>
<path d="M130.229 18.3666C134.279 18.3666 136.007 19.9326 136.196 22.9296H132.47C132.281 21.6066 131.39 21.2826 130.148 21.2826C129.014 21.2826 128.15 21.7146 128.15 22.5246C128.15 23.3886 128.852 23.8746 131.066 24.2256C134.819 24.7926 136.628 26.0886 136.628 28.8966C136.628 31.9206 133.874 33.3786 130.445 33.3786C126.395 33.3786 124.316 31.9476 123.938 28.7076H127.718C127.961 30.0036 128.771 30.4356 130.553 30.4356C131.957 30.4356 132.794 29.9766 132.794 29.2206C132.794 28.2756 131.822 27.7356 129.716 27.4116C125.936 26.7906 124.316 25.6566 124.316 22.7676C124.316 20.1486 126.638 18.3666 130.229 18.3666Z" fill="#0C111D"/>
<path d="M144.252 18.3666C148.464 18.3666 150.03 20.1756 150.219 22.6866C150.273 23.4156 150.3 24.0906 150.3 24.9006V33.0006H146.817L146.601 31.1106C145.953 33.0276 144.252 33.3786 142.146 33.3786C139.527 33.3786 137.475 31.8936 137.475 29.1126C137.475 25.5486 140.202 24.2526 145.71 24.2526H146.493V23.7396C146.493 22.3356 146.034 21.4446 144.09 21.4446C142.389 21.4446 141.633 22.0386 141.471 23.3616H137.934C138.042 20.2836 139.932 18.3666 144.252 18.3666ZM141.228 28.6536C141.228 29.7066 142.065 30.3006 143.388 30.3006C144.9 30.3006 146.493 29.4366 146.493 28.0326V26.8986C143.091 26.7366 141.228 27.0876 141.228 28.6536Z" fill="#0C111D"/>
<path d="M160.763 18.3666C163.76 18.3666 165.488 19.5546 165.839 22.1736C165.92 22.9026 165.947 23.5776 165.947 24.7386V33.0006H162.086V24.6846C162.086 22.7946 161.573 21.5796 159.44 21.5796C157.685 21.5256 156.443 22.7406 156.443 25.4406V33.0006H152.582V18.7446H156.119L156.281 21.0666C156.74 18.9606 158.414 18.3666 160.763 18.3666Z" fill="#0C111D"/>
<path d="M174.652 18.3666C179.188 18.3666 180.862 20.5536 181.132 23.7126H177.298C177.163 22.2276 176.137 21.4716 174.598 21.4716C172.627 21.4716 171.547 22.8486 171.547 25.8186C171.547 28.8156 172.519 30.2466 174.571 30.2466C176.029 30.2466 177.109 29.3556 177.298 28.0326H181.132C180.754 31.2726 178.621 33.3786 174.409 33.3786C169.657 33.3786 167.524 30.6516 167.524 25.8996C167.524 21.2016 169.657 18.3666 174.652 18.3666Z" fill="#0C111D"/>
<path d="M189.16 18.3666C193.831 18.3666 195.802 21.4176 195.802 25.6296C195.802 26.0346 195.775 26.5746 195.748 27.0336H186.001C186.244 29.4366 187.324 30.2736 189.106 30.2736C190.591 30.2736 191.428 29.7066 191.806 28.6536H195.559C195.046 31.6506 192.724 33.3786 189.025 33.3786C184.435 33.3786 182.059 30.8676 182.059 25.9536C182.059 21.3096 184.3 18.3666 189.16 18.3666ZM186.028 24.3336H191.914C191.698 22.2546 190.618 21.4446 188.998 21.4446C187.297 21.4446 186.271 22.2006 186.028 24.3336Z" fill="#0C111D"/>
</svg>
