<svg width="151" height="48" viewBox="0 0 151 48" fill="none" xmlns="http://www.w3.org/2000/svg">
<path d="M25.0008 24C25.0008 27.3137 22.3145 30 19.0008 30C15.6871 30 13.0008 27.3137 13.0008 24C13.0008 20.6863 15.6871 18 19.0008 18C22.3145 18 25.0008 20.6863 25.0008 24Z" fill="#FF4405"/>
<path d="M25.0008 10C25.0008 13.3137 22.3145 16 19.0008 16C15.6871 16 13.0008 13.3137 13.0008 10C13.0008 6.68629 15.6871 4 19.0008 4C22.3145 4 25.0008 6.68629 25.0008 10Z" fill="#FF4405"/>
<path d="M37.125 31C37.125 34.3137 34.4387 37 31.125 37C27.8113 37 25.125 34.3137 25.125 31C25.125 27.6863 27.8113 25 31.125 25C34.4387 25 37.125 27.6863 37.125 31Z" fill="#FF4405"/>
<path d="M37.127 17.0002C37.127 20.3139 34.4407 23.0002 31.127 23.0002C27.8132 23.0002 25.127 20.3139 25.127 17.0002C25.127 13.6865 27.8132 11.0002 31.127 11.0002C34.4407 11.0002 37.127 13.6865 37.127 17.0002Z" fill="#FF4405"/>
<path d="M25.0008 38C25.0008 41.3137 22.3145 44 19.0008 44C15.6871 44 13.0008 41.3137 13.0008 38C13.0008 34.6863 15.6871 32 19.0008 32C22.3145 32 25.0008 34.6863 25.0008 38Z" fill="#FF4405"/>
<path d="M12.877 17C12.877 20.3137 10.1907 23 6.87695 23C3.56324 23 0.876953 20.3137 0.876953 17C0.876953 13.6863 3.56324 11 6.87695 11C10.1907 11 12.877 13.6863 12.877 17Z" fill="#FF4405"/>
<path d="M12.875 30.9997C12.875 34.3134 10.1887 36.9997 6.875 36.9997C3.56129 36.9997 0.875 34.3134 0.875 30.9997C0.875 27.686 3.56129 24.9997 6.875 24.9997C10.1887 24.9997 12.875 27.686 12.875 30.9997Z" fill="#FF4405"/>
<path d="M48 33V13.3564H55.752C60.1685 13.3564 62.937 15.8481 62.937 19.8032C62.937 23.7583 60.1157 26.25 55.6992 26.25H52.0605V33H48ZM52.0605 22.8486H55.4883C57.6372 22.8486 58.9688 21.6753 58.9688 19.8032C58.9688 17.9312 57.6372 16.7578 55.4883 16.7578H52.0605V22.8486Z" fill="#0C111D"/>
<path d="M70.149 33.3164C65.9302 33.3164 63.0826 30.416 63.0826 26.0522C63.0826 21.6885 65.9302 18.7617 70.149 18.7617C74.3809 18.7617 77.2286 21.6885 77.2286 26.0522C77.2286 30.416 74.3809 33.3164 70.149 33.3164ZM70.149 30.1655C72.0474 30.1655 73.313 28.6362 73.313 26.0522C73.313 23.4551 72.0342 21.9126 70.149 21.9126C68.2769 21.9126 66.9981 23.4551 66.9981 26.0522C66.9981 28.6362 68.2637 30.1655 70.149 30.1655Z" fill="#0C111D"/>
<path d="M83.3463 33C80.169 33 78.8375 31.9189 78.8375 29.2295V13.3564H82.7266V28.8604C82.7266 29.7305 83.0299 30.0205 83.9 30.0205H84.4669V33H83.3463Z" fill="#0C111D"/>
<path d="M90.1891 33C87.0118 33 85.6803 31.9189 85.6803 29.2295V13.3564H89.5695V28.8604C89.5695 29.7305 89.8727 30.0205 90.7428 30.0205H91.3097V33H90.1891Z" fill="#0C111D"/>
<path d="M92.5231 33V19.0781H96.4123V33H92.5231ZM94.4611 17.3247C93.1823 17.3247 92.2463 16.4414 92.2463 15.2549C92.2463 14.0684 93.1823 13.1851 94.4611 13.1851C95.7399 13.1851 96.6759 14.0684 96.6759 15.2549C96.6759 16.4414 95.7399 17.3247 94.4611 17.3247Z" fill="#0C111D"/>
<path d="M102.517 25.2612V33H98.6276V19.0781H102.451V21.2666C103.387 19.6846 104.798 18.7881 106.801 18.7881C109.768 18.7881 111.679 20.7656 111.679 24.2856V33H107.803V24.9976C107.803 23.1255 106.867 22.1367 105.246 22.1367C103.637 22.1367 102.517 23.0991 102.517 25.2612Z" fill="#0C111D"/>
<path d="M118.166 33.2373C115.385 33.2373 113.381 31.853 113.381 29.0713C113.381 25.9336 115.912 25.0371 118.812 24.7734C121.357 24.5229 122.253 24.4043 122.253 23.5078V23.4155C122.253 22.3872 121.396 21.6753 119.972 21.6753C118.522 21.6753 117.573 22.4136 117.481 23.4814H113.829C114 20.6074 116.268 18.7881 120.091 18.7881C123.901 18.7881 126.09 20.5811 126.09 23.5605V33H122.293V31.0356H122.24C121.502 32.3936 120.302 33.2373 118.166 33.2373ZM119.247 30.5347C121.119 30.5347 122.28 29.4141 122.28 27.9111V26.5137C121.831 26.7642 120.737 26.9487 119.485 27.1465C118.153 27.3442 117.098 27.8584 117.098 28.9658C117.098 29.9546 117.942 30.5347 119.247 30.5347Z" fill="#0C111D"/>
<path d="M136.294 19.0781V22.1235H133.447V28.7021C133.447 29.6514 133.75 29.9546 134.804 29.9546H136.294V33H134.027C130.968 33 129.557 31.8398 129.557 29.3086V22.1235H127.158V19.0781H129.557V15.2812H133.447V19.0781H136.294Z" fill="#0C111D"/>
<path d="M143.862 33.3164C139.643 33.3164 136.901 30.2842 136.901 26.0522C136.901 21.8071 139.736 18.7617 143.73 18.7617C147.83 18.7617 150.586 21.728 150.586 25.9731V27.0146H140.685C140.751 29.0713 141.937 30.4028 143.981 30.4028C145.497 30.4028 146.538 29.7041 146.894 28.623H150.441C149.927 31.3916 147.237 33.3164 143.862 33.3164ZM140.711 24.5361H146.921C146.723 22.7959 145.563 21.7148 143.809 21.7148C142.069 21.7148 140.922 22.7959 140.711 24.5361Z" fill="#0C111D"/>
</svg>
