<svg width="147" height="48" viewBox="0 0 147 48" fill="none" xmlns="http://www.w3.org/2000/svg">
<path d="M20 4L24.2861 13.6525L34.1421 9.85786L30.3475 19.7139L40 24L30.3475 28.2861L34.1421 38.1421L24.2861 34.3475L20 44L15.7139 34.3475L5.85786 38.1421L9.65255 28.2861L0 24L9.65255 19.7139L5.85786 9.85786L15.7139 13.6525L20 4Z" fill="#0C111D"/>
<path d="M67.2662 16.844C67.7142 17.292 68.2742 17.516 68.9462 17.516C69.6182 17.516 70.1689 17.292 70.5982 16.844C71.0275 16.3773 71.2422 15.8173 71.2422 15.164C71.2422 14.492 71.0275 13.932 70.5982 13.484C70.1689 13.036 69.6182 12.812 68.9462 12.812C68.2742 12.812 67.7142 13.036 67.2662 13.484C66.8369 13.932 66.6222 14.492 66.6222 15.164C66.6222 15.8173 66.8369 16.3773 67.2662 16.844Z" fill="#0C111D"/>
<path d="M52.396 23.2725L59.956 33H65.416L57.1381 22.6398L65.136 13.232H59.704L52.396 22.1494V13.232H48V33H52.396V23.2725Z" fill="#0C111D"/>
<path d="M78.039 23.592C77.6656 24.04 77.479 24.656 77.479 25.44V33H73.195V25.356C73.195 24.1053 73.4656 23.0133 74.007 22.08C74.567 21.128 75.3323 20.3907 76.303 19.868C77.2923 19.3453 78.431 19.084 79.719 19.084C81.0256 19.084 82.1643 19.3453 83.135 19.868C84.1056 20.3907 84.8616 21.1187 85.403 22.052C85.9443 22.9853 86.215 24.0867 86.215 25.356V33H81.931V25.44C81.931 24.656 81.735 24.04 81.343 23.592C80.9696 23.1253 80.4283 22.892 79.719 22.892C78.991 22.892 78.431 23.1253 78.039 23.592Z" fill="#0C111D"/>
<path d="M92.6541 32.664C93.4754 33.0933 94.4274 33.308 95.5101 33.308C96.5554 33.308 97.4048 33.1493 98.0581 32.832C98.7114 32.5147 99.2994 32.0573 99.8221 31.46L97.2181 28.828C97.0314 29.0333 96.8168 29.192 96.5741 29.304C96.3501 29.3973 96.0794 29.444 95.7621 29.444C95.3888 29.444 95.0621 29.3227 94.7821 29.08C94.5208 28.8373 94.3901 28.4733 94.3901 27.988V23.06H98.8421V19.392H94.3901V13.764H90.1061V19.392H87.0821V23.06H90.1061V27.96C90.1061 29.0613 90.3301 30.0133 90.7781 30.816C91.2261 31.6187 91.8514 32.2347 92.6541 32.664Z" fill="#0C111D"/>
<path d="M106.023 33.336C105.221 33.336 104.427 33.2333 103.643 33.028C102.878 32.8227 102.159 32.5333 101.487 32.16C100.834 31.768 100.274 31.32 99.8072 30.816L102.243 28.352C102.691 28.8373 103.223 29.22 103.839 29.5C104.455 29.7613 105.127 29.892 105.855 29.892C106.359 29.892 106.742 29.8173 107.003 29.668C107.283 29.5187 107.423 29.3133 107.423 29.052C107.423 28.716 107.255 28.464 106.919 28.296C106.602 28.1093 106.191 27.9507 105.687 27.82C105.183 27.6707 104.651 27.512 104.091 27.344C103.531 27.176 102.999 26.9427 102.495 26.644C101.991 26.3453 101.581 25.9347 101.263 25.412C100.946 24.8707 100.787 24.1893 100.787 23.368C100.787 22.4907 101.011 21.7347 101.459 21.1C101.907 20.4467 102.542 19.9333 103.363 19.56C104.185 19.1867 105.146 19 106.247 19C107.405 19 108.469 19.2053 109.439 19.616C110.429 20.008 111.231 20.596 111.847 21.38L109.411 23.844C108.982 23.34 108.497 22.9853 107.955 22.78C107.433 22.5747 106.919 22.472 106.415 22.472C105.93 22.472 105.566 22.5467 105.323 22.696C105.081 22.8267 104.959 23.0227 104.959 23.284C104.959 23.564 105.118 23.788 105.435 23.956C105.753 24.124 106.163 24.2733 106.667 24.404C107.171 24.5347 107.703 24.6933 108.263 24.88C108.823 25.0667 109.355 25.3187 109.859 25.636C110.363 25.9533 110.774 26.3827 111.091 26.924C111.409 27.4467 111.567 28.1373 111.567 28.996C111.567 30.3213 111.063 31.376 110.055 32.16C109.066 32.944 107.722 33.336 106.023 33.336Z" fill="#0C111D"/>
<path d="M116.047 32.552C117.018 33.056 118.129 33.308 119.379 33.308C120.63 33.308 121.731 33.056 122.683 32.552C123.635 32.0293 124.382 31.32 124.923 30.424C125.465 29.5093 125.735 28.4547 125.735 27.26V19.392H121.451V27.232C121.451 27.9413 121.265 28.5013 120.891 28.912C120.518 29.304 120.014 29.5 119.379 29.5C118.931 29.5 118.549 29.4067 118.231 29.22C117.914 29.0333 117.671 28.772 117.503 28.436C117.354 28.1 117.279 27.6987 117.279 27.232V19.392H112.995V27.288C112.995 28.464 113.266 29.5093 113.807 30.424C114.349 31.32 115.095 32.0293 116.047 32.552Z" fill="#0C111D"/>
<path fill-rule="evenodd" clip-rule="evenodd" d="M133.241 39.048C131.991 39.048 130.861 38.824 129.853 38.376C128.864 37.928 128.08 37.3027 127.501 36.5C126.941 35.716 126.661 34.8107 126.661 33.784C126.661 32.9627 126.773 32.2907 126.997 31.768C127.24 31.2453 127.604 30.732 128.089 30.228L131.141 32.188C130.973 32.3747 130.843 32.5707 130.749 32.776C130.656 32.9813 130.609 33.224 130.609 33.504C130.609 34.064 130.843 34.512 131.309 34.848C131.776 35.184 132.429 35.352 133.269 35.352C134.165 35.352 134.856 35.1373 135.341 34.708C135.827 34.2973 136.069 33.7093 136.069 32.944C136.069 32.44 135.948 32.0013 135.705 31.628C135.463 31.236 135.117 30.9373 134.669 30.732C134.24 30.508 133.745 30.396 133.185 30.396C132.121 30.396 131.16 30.1533 130.301 29.668C129.461 29.164 128.789 28.492 128.285 27.652C127.8 26.7933 127.557 25.832 127.557 24.768C127.557 23.6667 127.809 22.696 128.313 21.856C128.836 20.9973 129.536 20.3253 130.413 19.84C131.309 19.3547 132.308 19.112 133.409 19.112C134.354 19.112 135.217 19.2907 135.997 19.648L138.253 17.432L140.717 19.896L138.626 21.9875C139.049 22.7302 139.261 23.5637 139.261 24.488C139.261 25.5147 139.009 26.42 138.505 27.204C138.191 27.7119 137.798 28.1493 137.327 28.5162C138.056 28.984 138.645 29.5732 139.093 30.284C139.635 31.1427 139.905 32.1227 139.905 33.224C139.905 34.3627 139.625 35.3707 139.065 36.248C138.505 37.1253 137.731 37.8067 136.741 38.292C135.752 38.796 134.585 39.048 133.241 39.048ZM133.409 26.868C133.839 26.868 134.212 26.784 134.529 26.616C134.847 26.4293 135.099 26.1773 135.285 25.86C135.472 25.5427 135.565 25.1787 135.565 24.768C135.565 24.3573 135.472 23.9933 135.285 23.676C135.117 23.3587 134.865 23.116 134.529 22.948C134.212 22.7613 133.839 22.668 133.409 22.668C132.98 22.668 132.607 22.7613 132.289 22.948C131.972 23.116 131.72 23.3587 131.533 23.676C131.347 23.9933 131.253 24.3573 131.253 24.768C131.253 25.1787 131.347 25.5427 131.533 25.86C131.72 26.1773 131.972 26.4293 132.289 26.616C132.625 26.784 132.999 26.868 133.409 26.868Z" fill="#0C111D"/>
<path d="M142.328 16.844C142.776 17.292 143.336 17.516 144.008 17.516C144.68 17.516 145.231 17.292 145.66 16.844C146.089 16.3773 146.304 15.8173 146.304 15.164C146.304 14.492 146.089 13.932 145.66 13.484C145.231 13.036 144.68 12.812 144.008 12.812C143.336 12.812 142.776 13.036 142.328 13.484C141.899 13.932 141.684 14.492 141.684 15.164C141.684 15.8173 141.899 16.3773 142.328 16.844Z" fill="#0C111D"/>
<path d="M66.7902 19.392V33H71.0742V19.392H66.7902Z" fill="#0C111D"/>
<path d="M141.852 19.392V33H146.136V19.392H141.852Z" fill="#0C111D"/>
</svg>
