<svg width="190" height="48" viewBox="0 0 190 48" fill="none" xmlns="http://www.w3.org/2000/svg">
<rect y="4" width="10" height="10" fill="#155EEF"/>
<rect opacity="0.6" x="20" y="4" width="10" height="10" fill="#155EEF"/>
<rect opacity="0.6" x="10" y="14" width="10" height="10" fill="#155EEF"/>
<rect opacity="0.45" x="20" y="14" width="10" height="10" fill="#155EEF"/>
<rect opacity="0.3" x="30" y="14" width="10" height="10" fill="#155EEF"/>
<rect opacity="0.6" y="24" width="10" height="10" fill="#155EEF"/>
<rect opacity="0.45" x="10" y="24" width="10" height="10" fill="#155EEF"/>
<rect opacity="0.3" x="20" y="24" width="10" height="10" fill="#155EEF"/>
<rect opacity="0.15" x="30" y="24" width="10" height="10" fill="#155EEF"/>
<rect opacity="0.3" x="10" y="34" width="10" height="10" fill="#155EEF"/>
<rect opacity="0.15" x="20" y="34" width="10" height="10" fill="#155EEF"/>
<path d="M69.92 23.2199C69.92 25.9799 69.03 28.3499 67.25 30.3299C65.49 32.3099 63.03 33.2999 59.87 33.2999C56.69 33.2999 54.25 32.3099 52.55 30.3299C50.85 28.3499 50 25.9999 50 23.2799C50 20.4399 50.9 18.0499 52.7 16.1099C54.5 14.1699 56.93 13.1999 59.99 13.1999C63.11 13.1999 65.54 14.1899 67.28 16.1699C69.04 18.1299 69.92 20.4799 69.92 23.2199ZM65.57 23.3399C65.57 21.2599 65.09 19.6399 64.13 18.4799C63.17 17.3199 61.78 16.7399 59.96 16.7399C58.02 16.7399 56.6 17.3599 55.7 18.5999C54.8 19.8199 54.35 21.3499 54.35 23.1899C54.35 24.9699 54.79 26.5099 55.67 27.8099C56.55 29.1099 58.02 29.7599 60.08 29.7599C61.98 29.7599 63.37 29.1699 64.25 27.9899C65.13 26.7899 65.57 25.2399 65.57 23.3399Z" fill="#0C111D"/>
<path d="M86.7174 32.9999H81.0474V30.4799C80.6674 31.2599 80.1074 31.9299 79.3674 32.4899C78.6274 33.0299 77.6474 33.2999 76.4274 33.2999C74.6474 33.2999 73.2474 32.6899 72.2274 31.4699C71.2074 30.2499 70.6974 28.5899 70.6974 26.4899C70.6974 24.4699 71.1974 22.7499 72.1974 21.3299C73.1974 19.9099 74.7074 19.1999 76.7274 19.1999C77.8274 19.1999 78.7274 19.4199 79.4274 19.8599C80.1274 20.2999 80.6674 20.8599 81.0474 21.5399V15.2999H78.3474V12.3599H84.9174V30.0899H86.7174V32.9999ZM81.0474 26.1599V25.8299C81.0474 24.7099 80.7474 23.8399 80.1474 23.2199C79.5674 22.5799 78.8374 22.2599 77.9574 22.2599C77.0974 22.2599 76.3374 22.5799 75.6774 23.2199C75.0374 23.8599 74.7174 24.8699 74.7174 26.2499C74.7174 27.5499 75.0174 28.5399 75.6174 29.2199C76.2174 29.8999 76.9274 30.2399 77.7474 30.2399C78.7674 30.2399 79.5674 29.8099 80.1474 28.9499C80.7474 28.0899 81.0474 27.1599 81.0474 26.1599Z" fill="#0C111D"/>
<path d="M100.437 28.7399C100.337 29.9399 99.7468 30.9999 98.6668 31.9199C97.5868 32.8399 96.0768 33.2999 94.1368 33.2999C92.1168 33.2999 90.4468 32.7299 89.1268 31.5899C87.8268 30.4499 87.1768 28.7499 87.1768 26.4899C87.1768 24.4099 87.7668 22.6799 88.9468 21.2999C90.1468 19.8999 91.8168 19.1999 93.9568 19.1999C95.8368 19.1999 97.3568 19.7399 98.5168 20.8199C99.6968 21.8999 100.297 23.3199 100.317 25.0799C100.317 25.7399 100.247 26.3899 100.107 27.0299H91.2268C91.4468 29.1699 92.5068 30.2399 94.4068 30.2399C95.4468 30.2399 96.1468 29.9899 96.5068 29.4899C96.8868 28.9899 97.1168 28.5399 97.1968 28.1399L100.437 28.7399ZM96.3268 24.7799C96.4068 24.0999 96.2568 23.4599 95.8768 22.8599C95.5168 22.2599 94.8768 21.9599 93.9568 21.9599C93.1568 21.9599 92.5368 22.2199 92.0968 22.7399C91.6568 23.2599 91.3768 23.9399 91.2568 24.7799H96.3268Z" fill="#0C111D"/>
<path d="M102.489 20.4299C103.669 19.9499 104.649 19.6299 105.429 19.4699C106.229 19.2899 107.179 19.1999 108.279 19.1999C109.739 19.1999 110.999 19.5799 112.059 20.3399C113.119 21.0999 113.649 22.2499 113.649 23.7899V29.6699C113.649 30.3699 113.959 30.7199 114.579 30.7199C114.759 30.7199 114.949 30.6899 115.149 30.6299L115.179 32.6699C114.399 33.0899 113.589 33.2999 112.749 33.2999C110.969 33.2999 109.979 32.4099 109.779 30.6299V30.5999C109.399 31.2799 108.849 31.8999 108.129 32.4599C107.429 33.0199 106.529 33.2999 105.429 33.2999C104.449 33.2999 103.509 33.0099 102.609 32.4299C101.709 31.8499 101.259 30.8499 101.259 29.4299C101.259 27.7699 101.919 26.6699 103.239 26.1299C104.579 25.5899 106.019 25.3199 107.559 25.3199C108.419 25.3199 109.159 25.3599 109.779 25.4399V24.9899C109.779 24.2899 109.679 23.6099 109.479 22.9499C109.299 22.2899 108.659 21.9599 107.559 21.9599C107.159 21.9599 106.789 21.9899 106.449 22.0499C106.129 22.0899 105.809 22.1899 105.489 22.3499L104.979 24.2699L101.889 23.9399L102.489 20.4299ZM109.779 27.4799V27.2999C109.459 27.2599 109.129 27.2199 108.789 27.1799C108.469 27.1399 108.149 27.1199 107.829 27.1199C107.149 27.1199 106.549 27.2499 106.029 27.5099C105.509 27.7499 105.249 28.2399 105.249 28.9799C105.249 29.4199 105.369 29.7899 105.609 30.0899C105.849 30.3899 106.259 30.5399 106.839 30.5399C107.519 30.5399 108.149 30.2999 108.729 29.8199C109.329 29.3199 109.679 28.5399 109.779 27.4799Z" fill="#0C111D"/>
<path d="M130.115 26.2499C130.115 28.3899 129.415 30.0999 128.015 31.3799C126.615 32.6599 124.835 33.2999 122.675 33.2999C120.595 33.2999 118.895 32.6999 117.575 31.4999C116.275 30.2799 115.625 28.5799 115.625 26.3999C115.625 24.4199 116.225 22.7199 117.425 21.2999C118.625 19.8799 120.445 19.1699 122.885 19.1699C125.325 19.1699 127.135 19.8799 128.315 21.2999C129.515 22.6999 130.115 24.3499 130.115 26.2499ZM126.125 26.1299C126.125 24.7499 125.805 23.7399 125.165 23.0999C124.525 22.4599 123.745 22.1399 122.825 22.1399C121.825 22.1399 121.035 22.4999 120.455 23.2199C119.895 23.9199 119.615 24.9099 119.615 26.1899C119.615 27.3499 119.875 28.3299 120.395 29.1299C120.935 29.9299 121.735 30.3299 122.795 30.3299C123.795 30.3299 124.595 29.9599 125.195 29.2199C125.815 28.4599 126.125 27.4299 126.125 26.1299Z" fill="#0C111D"/>
<path d="M145.293 32.9999H130.653V29.5799H132.753V16.9199H130.653V13.4999H139.503V16.9199H136.773V29.5799H141.873L142.473 25.7999L145.893 26.0999L145.293 32.9999Z" fill="#0C111D"/>
<path d="M147.652 20.4299C148.832 19.9499 149.812 19.6299 150.592 19.4699C151.392 19.2899 152.342 19.1999 153.442 19.1999C154.902 19.1999 156.162 19.5799 157.222 20.3399C158.282 21.0999 158.812 22.2499 158.812 23.7899V29.6699C158.812 30.3699 159.122 30.7199 159.742 30.7199C159.922 30.7199 160.112 30.6899 160.312 30.6299L160.342 32.6699C159.562 33.0899 158.752 33.2999 157.912 33.2999C156.132 33.2999 155.142 32.4099 154.942 30.6299V30.5999C154.562 31.2799 154.012 31.8999 153.292 32.4599C152.592 33.0199 151.692 33.2999 150.592 33.2999C149.612 33.2999 148.672 33.0099 147.772 32.4299C146.872 31.8499 146.422 30.8499 146.422 29.4299C146.422 27.7699 147.082 26.6699 148.402 26.1299C149.742 25.5899 151.182 25.3199 152.722 25.3199C153.582 25.3199 154.322 25.3599 154.942 25.4399V24.9899C154.942 24.2899 154.842 23.6099 154.642 22.9499C154.462 22.2899 153.822 21.9599 152.722 21.9599C152.322 21.9599 151.952 21.9899 151.612 22.0499C151.292 22.0899 150.972 22.1899 150.652 22.3499L150.142 24.2699L147.052 23.9399L147.652 20.4299ZM154.942 27.4799V27.2999C154.622 27.2599 154.292 27.2199 153.952 27.1799C153.632 27.1399 153.312 27.1199 152.992 27.1199C152.312 27.1199 151.712 27.2499 151.192 27.5099C150.672 27.7499 150.412 28.2399 150.412 28.9799C150.412 29.4199 150.532 29.7899 150.772 30.0899C151.012 30.3899 151.422 30.5399 152.002 30.5399C152.682 30.5399 153.312 30.2999 153.892 29.8199C154.492 29.3199 154.842 28.5399 154.942 27.4799Z" fill="#0C111D"/>
<path d="M176.087 25.9199C176.087 27.9199 175.557 29.6499 174.497 31.1099C173.457 32.5699 171.917 33.2999 169.877 33.2999C167.817 33.2999 166.367 32.5199 165.527 30.9599C165.487 31.2999 165.437 31.6399 165.377 31.9799C165.337 32.3199 165.287 32.6599 165.227 32.9999H161.357C161.497 32.2999 161.617 31.5999 161.717 30.8999C161.817 30.1999 161.867 29.5099 161.867 28.8299V15.2999H160.067V12.3599H165.737V22.0499C166.097 21.2699 166.637 20.5999 167.357 20.0399C168.097 19.4799 169.077 19.1999 170.297 19.1999C171.997 19.1999 173.387 19.7899 174.467 20.9699C175.547 22.1499 176.087 23.7999 176.087 25.9199ZM172.067 26.2499C172.067 24.9499 171.787 23.9599 171.227 23.2799C170.667 22.5999 169.927 22.2599 169.007 22.2599C167.967 22.2599 167.157 22.6399 166.577 23.3999C166.017 24.1599 165.737 25.0399 165.737 26.0399V26.3699C165.737 27.4699 166.007 28.3999 166.547 29.1599C167.107 29.8999 167.897 30.2699 168.917 30.2699C169.797 30.2699 170.537 29.9499 171.137 29.3099C171.757 28.6499 172.067 27.6299 172.067 26.2499Z" fill="#0C111D"/>
<path d="M189.161 28.8599C189.161 30.3599 188.561 31.4799 187.361 32.2199C186.181 32.9399 184.641 33.2999 182.741 33.2999C181.761 33.2999 180.771 33.1999 179.771 32.9999C178.791 32.7799 177.851 32.4399 176.951 31.9799L177.491 28.1999L180.491 28.5299V30.2099C180.851 30.3299 181.231 30.4099 181.631 30.4499C182.031 30.4699 182.331 30.4799 182.531 30.4799C183.271 30.4799 183.911 30.3599 184.451 30.1199C184.991 29.8799 185.261 29.5199 185.261 29.0399C185.261 28.4599 184.851 28.0799 184.031 27.8999C183.211 27.7199 182.261 27.5399 181.181 27.3599C180.101 27.1799 179.151 26.8099 178.331 26.2499C177.511 25.6899 177.101 24.7399 177.101 23.3999C177.101 21.7399 177.741 20.6299 179.021 20.0699C180.321 19.4899 181.661 19.1999 183.041 19.1999C184.841 19.1999 186.531 19.6099 188.111 20.4299L188.441 23.8799L185.441 24.2099L185.201 22.3199C184.541 22.0999 183.831 21.9899 183.071 21.9899C182.571 21.9899 182.141 22.0999 181.781 22.3199C181.441 22.5199 181.271 22.8399 181.271 23.2799C181.271 23.8599 181.661 24.2499 182.441 24.4499C183.241 24.6299 184.161 24.8099 185.201 24.9899C186.261 25.1699 187.181 25.5399 187.961 26.0999C188.761 26.6399 189.161 27.5599 189.161 28.8599Z" fill="#0C111D"/>
</svg>
