<svg width="197" height="48" viewBox="0 0 197 48" fill="none" xmlns="http://www.w3.org/2000/svg">
<path opacity="0.4" d="M45.7999 21.2374C43.7211 23.3162 40.3508 23.3162 38.272 21.2374C36.1932 19.1586 36.1932 15.7883 38.272 13.7095C40.3508 11.6307 43.7211 11.6307 45.7999 13.7095C47.8787 15.7883 47.8787 19.1586 45.7999 21.2374Z" fill="#155EEF"/>
<path opacity="0.6" d="M45.7954 21.2356C43.7166 23.3144 40.3462 23.3143 38.2674 21.2356L30.8331 13.8013C28.7543 11.7225 25.384 11.7225 23.3052 13.8013C21.2264 15.8801 21.2264 19.2504 23.3052 21.3292L30.7395 28.7635C32.8183 30.8423 36.1886 30.8423 38.2674 28.7635L45.7954 21.2356Z" fill="#155EEF"/>
<path d="M38.2671 28.7652C36.1883 30.844 32.8179 30.844 30.7391 28.7652L16.3106 14.3366C13.5388 11.5649 9.045 11.5649 6.27329 14.3366L0 20.6099C2.07879 18.5311 5.44916 18.5311 7.52795 20.6099L23.2112 36.2931C25.29 38.3719 28.6603 38.3719 30.7391 36.2931L38.2671 28.7652Z" fill="#155EEF"/>
<path d="M72.362 32.9998L68.744 19.4458L65.126 32.9998H60.968L56 13.6138H59.996L63.128 26.7628L66.692 13.6138H70.877L74.333 26.8168L77.492 13.6138H81.515L76.52 32.9998H72.362Z" fill="#0C111D"/>
<path d="M86.7726 15.2338C86.7726 16.5028 85.7466 17.4478 84.2616 17.4478C82.8036 17.4478 81.7776 16.5028 81.7776 15.2338C81.7776 13.9108 82.8036 12.9658 84.2616 12.9658C85.7466 12.9658 86.7726 13.9108 86.7726 15.2338ZM86.1786 32.9998H82.4256V18.5818H86.1786V32.9998Z" fill="#0C111D"/>
<path d="M92.2184 32.9998H88.4384V13.6138H92.2184V32.9998Z" fill="#0C111D"/>
<path d="M93.5589 25.7908C93.5589 21.5248 96.0699 18.3118 99.9579 18.3118C101.686 18.3118 103.144 19.0678 104.224 20.4448V13.6138H107.95V32.9998H104.521V30.9208C103.387 32.4328 101.821 33.2698 99.9579 33.2698C96.0699 33.2698 93.5589 30.0028 93.5589 25.7908ZM97.4199 25.7908C97.4199 28.4908 98.9589 29.9218 100.795 29.9218C102.658 29.9218 104.197 28.4638 104.197 25.7368C104.197 23.0098 102.631 21.6328 100.795 21.6328C98.9589 21.6328 97.4199 23.0368 97.4199 25.7908Z" fill="#0C111D"/>
<path d="M116.295 33.2698C112.137 33.2698 109.275 30.1918 109.275 25.7908C109.275 21.4708 112.245 18.3118 116.295 18.3118C120.048 18.3118 122.829 20.8498 123.288 24.7378H119.346C119.157 22.8208 117.996 21.6328 116.295 21.6328C114.351 21.6328 113.109 23.2258 113.109 25.7908C113.109 28.3828 114.324 29.9488 116.295 29.9488C118.023 29.9488 119.13 28.8148 119.346 26.8438H123.288C122.856 30.8128 120.156 33.2698 116.295 33.2698Z" fill="#0C111D"/>
<path d="M128.37 26.0068V32.9998H124.617V18.5818H128.073V21.3628C129.126 19.5268 131.367 18.4198 133.689 18.4198V22.3078C130.503 22.0648 128.37 22.8208 128.37 26.0068Z" fill="#0C111D"/>
<path d="M143.145 32.9998V31.2178C142.2 32.5678 140.769 33.2698 138.798 33.2698C135.801 33.2698 133.803 31.5148 133.803 28.8148C133.803 26.0068 136.071 24.4948 140.283 24.4948C141.093 24.4948 141.795 24.5488 142.686 24.6568V23.7928C142.686 22.1728 141.768 21.2278 140.202 21.2278C138.582 21.2278 137.61 22.1728 137.475 23.7928H134.1C134.316 20.4718 136.719 18.3118 140.202 18.3118C143.982 18.3118 146.196 20.3908 146.196 23.9278V32.9998H143.145ZM137.34 28.7068C137.34 29.9218 138.204 30.6778 139.608 30.6778C141.525 30.6778 142.686 29.6248 142.686 27.9508V26.9248C141.795 26.7898 141.174 26.7358 140.526 26.7358C138.393 26.7358 137.34 27.4108 137.34 28.7068Z" fill="#0C111D"/>
<path d="M153.242 32.9998H149.516V21.7948H146.6V18.5818H149.516V17.7988C149.516 14.9368 151.055 13.3168 154.052 13.3168C154.97 13.3168 155.753 13.4788 156.374 13.7488V16.7188C155.969 16.5568 155.429 16.4758 154.943 16.4758C153.917 16.4758 153.242 16.8808 153.242 17.8798V18.5818H156.995V21.7948H153.242V32.9998Z" fill="#0C111D"/>
<path d="M167.572 29.3548V32.6218C166.654 33.0808 165.79 33.2698 164.683 33.2698C161.713 33.2698 159.85 31.5688 159.85 28.3288V21.7948H156.934V18.5818H159.85V14.3158H163.576V18.5818H167.707V21.7948H163.576V27.4648C163.576 29.1388 164.332 29.8138 165.682 29.8138C166.384 29.8138 167.032 29.6518 167.572 29.3548Z" fill="#0C111D"/>
<path d="M174.866 33.2428C170.546 33.2428 167.657 30.2458 167.657 25.7368C167.657 21.4438 170.654 18.3118 174.812 18.3118C179.375 18.3118 182.399 22.0108 181.724 26.7088H171.491C171.734 29.0578 172.868 30.3538 174.785 30.3538C176.432 30.3538 177.539 29.5438 177.971 28.1128H181.697C180.887 31.3798 178.376 33.2428 174.866 33.2428ZM174.731 21.0658C172.976 21.0658 171.869 22.1998 171.545 24.3328H177.755C177.647 22.3348 176.513 21.0658 174.731 21.0658Z" fill="#0C111D"/>
<path d="M181.949 25.7908C181.949 21.5248 184.46 18.3118 188.348 18.3118C190.076 18.3118 191.534 19.0678 192.614 20.4448V13.6138H196.34V32.9998H192.911V30.9208C191.777 32.4328 190.211 33.2698 188.348 33.2698C184.46 33.2698 181.949 30.0028 181.949 25.7908ZM185.81 25.7908C185.81 28.4908 187.349 29.9218 189.185 29.9218C191.048 29.9218 192.587 28.4638 192.587 25.7368C192.587 23.0098 191.021 21.6328 189.185 21.6328C187.349 21.6328 185.81 23.0368 185.81 25.7908Z" fill="#0C111D"/>
</svg>
