<svg width="40" height="48" viewBox="0 0 40 48" fill="none" xmlns="http://www.w3.org/2000/svg">
<path fill-rule="evenodd" clip-rule="evenodd" d="M20 44C31.0457 44 40 35.0457 40 24C40 12.9543 31.0457 4 20 4C8.95428 4 0 12.9543 0 24C0 35.0457 8.95428 44 20 44ZM26.2393 13.3168C26.543 12.2381 25.4961 11.6001 24.54 12.2813L11.1931 21.7896C10.1562 22.5283 10.3193 24 11.4381 24H14.9527V23.9728H21.8025L16.2212 25.9421L13.7607 34.6832C13.457 35.762 14.5038 36.3999 15.46 35.7187L28.8069 26.2105C29.8438 25.4718 29.6806 24 28.5619 24H23.2321L26.2393 13.3168Z" fill="#1D4ED8"/>
</svg>
